<svg width="268" height="268" viewBox="0 0 268 268" fill="none" xmlns="http://www.w3.org/2000/svg">
<mask id="mask0" mask-type="alpha" maskUnits="userSpaceOnUse" x="0" y="0" width="268" height="268">
<circle cx="134" cy="134" r="134" fill="#56CCA1"/>
</mask>
<g mask="url(#mask0)">
<circle cx="133" cy="135" r="125" fill="#56CCA1"/>
<path fill-rule="evenodd" clip-rule="evenodd" d="M240.164 199.386C251.487 180.58 258 158.551 258 135C258 65.9644 202.036 10 133 10C88.3997 10 49.255 33.3584 27.132 68.5091C15.0108 60.178 0.329925 55.302 -15.4898 55.302V266.495H59.8479V236.371C68.8936 242.91 78.8493 248.268 89.4889 252.219L89.4889 266.495H240.164L240.164 199.386ZM240.164 199.386L240.164 130.64C240.164 89.0318 206.434 55.302 164.827 55.302C123.219 55.302 89.4888 89.0318 89.4888 130.64L89.4889 252.219C103.039 257.251 117.699 260 133 260C178.485 260 218.296 235.706 240.164 199.386ZM8.0001 135C8.0001 176.719 28.4381 213.665 59.8479 236.371V130.64C59.8479 104.852 46.891 82.0898 27.132 68.5091C15.0114 87.7671 8.0001 110.565 8.0001 135Z" fill="white"/>
<circle cx="133" cy="135" r="129.464" stroke="#56CCA1" stroke-width="8.92857"/>
</g>
</svg>
