<svg width="40" height="40" viewBox="0 0 40 40" fill="none" xmlns="http://www.w3.org/2000/svg">
<mask id="mask0" mask-type="alpha" maskUnits="userSpaceOnUse" x="0" y="0" width="40" height="40">
<circle cx="20" cy="20" r="20" fill="#56CCA1"/>
</mask>
<g mask="url(#mask0)">
<circle cx="19.8507" cy="20.1493" r="18.6567" fill="#56CCA1"/>
<path fill-rule="evenodd" clip-rule="evenodd" d="M35.8454 29.7591C37.5354 26.9523 38.5075 23.6643 38.5075 20.1493C38.5075 9.84543 30.1546 1.49254 19.8508 1.49254C13.194 1.49254 7.35149 4.97886 4.04954 10.2252C2.24041 8.98179 0.049235 8.25403 -2.31192 8.25403V39.7753H8.93252V35.2792C10.2826 36.2552 11.7686 37.0549 13.3565 37.6446L13.3565 39.7753H35.8454L35.8454 29.7591ZM35.8454 29.7591L35.8454 19.4985C35.8454 13.2883 30.8111 8.25402 24.601 8.25402C18.3908 8.25402 13.3565 13.2883 13.3565 19.4985L13.3565 37.6446C15.379 38.3956 17.5669 38.806 19.8508 38.806C26.6395 38.806 32.5814 35.18 35.8454 29.7591ZM1.19404 20.1493C1.19404 26.376 4.24449 31.8903 8.93252 35.2792V19.4985C8.93252 15.6495 6.99864 12.2522 4.04954 10.2252C2.2405 13.0996 1.19404 16.5022 1.19404 20.1493Z" fill="white"/>
<circle cx="19.8507" cy="20.1493" r="19.323" stroke="#56CCA1" stroke-width="1.33262"/>
</g>
</svg>
